<svg width="17" height="16" viewBox="0 0 17 16" fill="none" xmlns="http://www.w3.org/2000/svg">
<path d="M13.8768 7.00009H9.50087C9.10296 7.00009 8.72134 6.84202 8.43998 6.56065C8.15861 6.27928 8.00054 5.89767 8.00054 5.49976V1.12381C8.00054 1.09065 7.98737 1.05885 7.96392 1.0354C7.94047 1.01195 7.90867 0.998779 7.87551 0.998779H4.99989C4.46934 0.998779 3.96052 1.20954 3.58536 1.58469C3.21021 1.95985 2.99945 2.46867 2.99945 2.99921V13.0014C2.99945 13.5319 3.21021 14.0408 3.58536 14.4159C3.96052 14.7911 4.46934 15.0018 4.99989 15.0018H12.0014C12.532 15.0018 13.0408 14.7911 13.4159 14.4159C13.7911 14.0408 14.0018 13.5319 14.0018 13.0014V7.12511C14.0018 7.09195 13.9887 7.06015 13.9652 7.03671C13.9418 7.01326 13.91 7.00009 13.8768 7.00009Z" fill="black"/>
<path d="M13.602 5.89338L9.10636 1.3977C9.09761 1.38901 9.0865 1.38309 9.0744 1.3807C9.06231 1.37831 9.04978 1.37955 9.03839 1.38426C9.02699 1.38897 9.01725 1.39694 9.01038 1.40718C9.0035 1.41741 8.99981 1.42945 8.99976 1.44178V5.4998C8.99976 5.63246 9.05245 5.75968 9.14625 5.85348C9.24006 5.94728 9.36728 5.99998 9.49994 5.99998H13.558C13.5703 5.99993 13.5823 5.99624 13.5926 5.98936C13.6028 5.98249 13.6108 5.97274 13.6155 5.96135C13.6202 5.94996 13.6214 5.93743 13.619 5.92533C13.6166 5.91324 13.6107 5.90212 13.602 5.89338Z" fill="black"/>
</svg>
