<svg
  width="16"
  height="16"
  viewBox="0 0 16 16"
  fill="none"
  xmlns="http://www.w3.org/2000/svg"
>
  <path
    d="M14.0011 2.99955C14.0013 2.64883 13.9093 2.30422 13.7343 2.00028C13.5592 1.69634 13.3074 1.44375 13.004 1.26783C12.7006 1.09192 12.3563 0.99887 12.0055 0.998012C11.6548 0.997154 11.31 1.08852 11.0058 1.26294C10.7015 1.43737 10.4484 1.68872 10.2719 1.9918C10.0954 2.29489 10.0017 2.63904 10.0002 2.98976C9.9987 3.34048 10.0894 3.68543 10.2633 3.99003C10.4371 4.29464 10.688 4.54818 10.9907 4.72524C10.9348 5.37757 10.6322 5.91612 10.0883 6.3284C9.53354 6.75037 8.75274 7.00042 7.99976 7.00042C7.24679 7.00042 6.46599 6.75037 5.91119 6.3284C5.36732 5.91612 5.06475 5.37757 5.0088 4.72524C5.3888 4.50304 5.6849 4.16171 5.8512 3.75414C6.01751 3.34657 6.04474 2.89553 5.92868 2.47091C5.81262 2.04629 5.55974 1.67182 5.20923 1.40551C4.85873 1.13921 4.43017 0.995954 3.98998 0.997945C3.54979 0.999936 3.12255 1.14706 2.77447 1.41653C2.42639 1.68599 2.17691 2.06274 2.06469 2.48839C1.95247 2.91404 1.98379 3.36482 2.15377 3.77086C2.32376 4.17691 2.62294 4.51555 3.00493 4.7343C3.06994 6.01177 3.66663 7.13701 4.70248 7.9225C5.35231 8.41511 6.15561 8.75674 6.99955 8.9099V11.2704C6.61818 11.4906 6.32012 11.8305 6.1516 12.2373C5.98308 12.6442 5.95352 13.0952 6.06749 13.5206C6.18147 13.946 6.43261 14.3218 6.78198 14.5899C7.13134 14.858 7.5594 15.0033 7.99976 15.0033C8.44013 15.0033 8.86819 14.858 9.21755 14.5899C9.56692 14.3218 9.81806 13.946 9.93204 13.5206C10.046 13.0952 10.0164 12.6442 9.84793 12.2373C9.67941 11.8305 9.38135 11.4906 8.99998 11.2704V8.9099C9.84392 8.75674 10.6472 8.41511 11.297 7.9225C12.3329 7.13701 12.9296 6.01177 12.9946 4.7343C13.3002 4.55933 13.5542 4.30677 13.7309 4.00217C13.9077 3.69757 14.0008 3.35171 14.0011 2.99955ZM3.99889 1.99933C4.19672 1.99933 4.3901 2.05799 4.55459 2.1679C4.71907 2.27781 4.84727 2.43402 4.92298 2.61678C4.99868 2.79955 5.01849 3.00066 4.97989 3.19468C4.9413 3.38871 4.84604 3.56693 4.70615 3.70681C4.56627 3.84669 4.38805 3.94196 4.19403 3.98055C4 4.01914 3.79889 3.99934 3.61613 3.92363C3.43336 3.84793 3.27715 3.71973 3.16724 3.55524C3.05734 3.39076 2.99868 3.19738 2.99868 2.99955C2.99868 2.73428 3.10406 2.47987 3.29163 2.29229C3.47921 2.10471 3.73362 1.99933 3.99889 1.99933ZM7.99976 14.0019C7.80194 14.0019 7.60856 13.9433 7.44407 13.8334C7.27959 13.7235 7.15139 13.5673 7.07568 13.3845C6.99998 13.2017 6.98017 13.0006 7.01877 12.8066C7.05736 12.6126 7.15262 12.4344 7.2925 12.2945C7.43239 12.1546 7.61061 12.0593 7.80463 12.0207C7.99866 11.9821 8.19977 12.0019 8.38253 12.0776C8.5653 12.1534 8.72151 12.2816 8.83142 12.446C8.94132 12.6105 8.99998 12.8039 8.99998 13.0017C8.99998 13.267 8.8946 13.5214 8.70703 13.709C8.51945 13.8966 8.26504 14.0019 7.99976 14.0019ZM12.0006 3.99977C11.8028 3.99977 11.6094 3.94111 11.4449 3.8312C11.2805 3.7213 11.1523 3.56508 11.0766 3.38232C11.0009 3.19955 10.981 2.99844 11.0196 2.80442C11.0582 2.61039 11.1535 2.43217 11.2934 2.29229C11.4333 2.15241 11.6115 2.05715 11.8055 2.01855C11.9995 1.97996 12.2006 1.99977 12.3834 2.07547C12.5662 2.15117 12.7224 2.27937 12.8323 2.44386C12.9422 2.60834 13.0009 2.80173 13.0009 2.99955C13.0009 3.26483 12.8955 3.51923 12.7079 3.70681C12.5203 3.89439 12.2659 3.99977 12.0006 3.99977Z"
    fill="black"
  />
</svg>
