<svg width="128" height="128" viewBox="0 0 128 128" fill="none" xmlns="http://www.w3.org/2000/svg">
<g clip-path="url(#clip0_42_5504)">
<mask id="mask0_42_5504" style="mask-type:luminance" maskUnits="userSpaceOnUse" x="0" y="0" width="128" height="128">
<path d="M128 0H0V128H128V0Z" fill="white"/>
</mask>
<g mask="url(#mask0_42_5504)">
<path d="M128 0H0V128H128V0Z" fill="black"/>
<path d="M9.08335 25.25C7.1339 31.017 4.40465 44.5975 9.08335 52.785C13.762 60.9722 22.8919 67.7302 26.872 70.0857C25.0037 65.5372 20.1801 54.753 20.375 48.125C20.5699 41.497 25.1662 34.8345 26.872 32.3165C26.6285 38.652 22.5 48.875 31.875 56.875C36.3583 60.7008 43.75 60.75 45.25 60.125C42.4883 57.0385 34.1608 53.625 35.6445 46.2057C36.4245 42.307 39.5435 38.4083 41.0055 36.9463C40.762 40.2765 41.6073 46.9523 44.6608 49.861C48.875 53.875 51.25 53.5 52.7023 52.785C50.625 51.125 48.2672 47.9115 48.0725 43.038C47.8287 36.9462 67.0795 33.7785 79.9948 43.038C92.9098 52.2975 95.103 60.5825 93.3972 67.649C92.0325 73.3023 77.7202 68.5425 70.7347 65.456C70.8972 67.5678 73.875 73.375 79.9948 74.7155C89.0275 76.694 73.6325 81.4105 64.6428 74.7155C61.5 72.375 59.5312 69.0432 59.125 67.5C56.9318 71.805 56.75 79.75 64.6428 83.875C70.5775 86.9767 74.875 87.375 76.5 87.125C70.875 91.75 61.2778 91.4223 52.7023 86.6555C48.375 84.25 47.75 79.5 48.0725 77.6395C46.123 79.6703 43.9785 85.6807 50.9965 93.4782C59.769 103.225 78.289 105.905 91.4477 97.377C104.606 88.8485 119.471 70.0857 128 70.0857" stroke="white" stroke-width="4" stroke-linecap="round"/>
<path d="M73 51.625C73 50.5895 72.1605 49.75 71.125 49.75C70.0895 49.75 69.25 50.5895 69.25 51.625C69.25 52.6605 70.0895 53.5 71.125 53.5C72.1605 53.5 73 52.6605 73 51.625Z" fill="white"/>
</g>
</g>
<defs>
<clipPath id="clip0_42_5504">
<rect width="128" height="128" rx="16" fill="white"/>
</clipPath>
</defs>
</svg>
